PathFileType	4	(X/Y/Z)	C:\Users\86182\Documents\cortex\Trimmed_M1_L8.trc
DataRate	CameraRate	NumFrames	NumMarkers	Units	OrigDataRate	OrigDataStartFrame	OrigNumFrames
100.00	100.00	       113	2	mm	100.00	191	       951
Frame#	Time	gripper			box			
		X1	Y1	Z1	X2	Y2	Z2	

191	1.900	199.69646	194.45718	206.95522	201.36720	193.73012	68.60617	
192	1.910	199.65854	194.40950	207.59642	201.44754	193.74577	68.94019	
193	1.920	199.50407	194.51097	208.09077	201.48590	193.80984	69.37353	
194	1.930	199.53328	194.49190	208.41017	201.60773	193.85037	69.70081	
195	1.940	199.52750	194.53978	208.74399	204.96719	194.19704	68.08112	
196	1.950	199.44391	194.44479	209.35416	201.10683	193.78575	70.58930	
197	1.960	199.56454	194.52049	209.67126	201.20453	193.86650	70.97839	
198	1.970	199.33833	194.52779	210.10867	201.36278	193.82179	71.31843	
199	1.980	199.51303	194.59186	210.48535	201.26056	193.86951	71.77044	
200	1.990	199.32364	194.47813	210.95018	205.36984	194.18387	69.68380	
201	2.000	199.23541	194.54353	211.36848	201.03165	193.79816	72.69823	
202	2.010	199.24747	194.51408	211.74004	201.30588	193.90744	73.06677	
203	2.020	199.31509	194.59561	212.20506	201.30399	193.91370	73.27488	
204	2.030	199.41830	194.49968	212.58418	200.96738	193.92041	73.70490	
205	2.040	199.36032	194.49277	213.03340	204.93211	194.13751	71.81474	
206	2.050	199.35559	194.54182	213.32108	201.13869	193.67525	74.77855	
207	2.060	199.43105	194.54846	213.92676	201.15666	193.84781	75.20603	
208	2.070	199.44997	194.52209	214.35895	201.39583	193.91824	75.38793	
209	2.080	199.53201	194.51237	214.65756	201.26842	193.85843	75.82875	
210	2.090	199.57675	194.56844	215.22958	205.33600	194.12051	74.09013	
211	2.100	199.44313	194.49599	215.72365	201.20782	193.74496	76.91472	
212	2.110	199.51614	194.50706	215.99940	201.30603	193.90739	77.29318	
213	2.120	199.66167	194.59174	216.32892	201.40634	193.88937	77.69992	
214	2.130	199.74352	194.60655	216.98782	201.37691	193.85683	78.04532	
215	2.140	199.50249	194.53891	217.36098	205.04100	194.23624	76.26457	
216	2.150	199.46796	194.51492	217.68434	201.08653	193.98396	78.91518	
217	2.160	199.53508	194.61330	218.02585	201.11020	193.88411	79.15270	
218	2.170	199.41725	194.68690	218.66447	201.39636	193.89656	79.80459	
219	2.180	199.29788	194.59341	219.09085	201.17259	193.89063	80.19080	
220	2.190	199.21288	194.44923	219.37416	205.74582	194.22969	77.84342	
221	2.200	199.23167	194.33586	219.81830	200.83917	193.85861	80.97294	
222	2.210	199.35938	194.29123	220.30321	201.00003	193.80421	81.35558	
223	2.220	199.11319	194.26608	220.56815	201.15656	193.79578	81.55377	
224	2.230	198.89072	194.26657	221.13387	201.02177	193.91640	82.25445	
225	2.240	198.94252	194.28125	221.61322	205.54131	194.21387	80.02842	
226	2.250	199.18352	194.31155	222.03023	201.09082	193.79088	83.21090	
227	2.260	199.23599	194.28696	222.33818	201.07097	193.87529	83.49651	
228	2.270	198.89265	194.16824	222.93091	201.17549	193.90135	83.76560	
229	2.280	198.95258	194.39850	223.51125	201.12106	194.01282	84.21980	
230	2.290	199.03143	194.37175	223.78612	201.25456	193.87619	85.10789	
231	2.300	199.09331	194.21439	224.17952	201.17455	193.90593	85.35651	
232	2.310	199.03651	194.30687	224.77109	201.15271	193.95715	85.63290	
233	2.320	199.03294	194.54552	225.26732	201.06956	194.01265	85.93059	
234	2.330	199.04590	194.49919	225.59070	201.23128	194.00551	86.48774	
235	2.340	198.97885	194.31116	225.83984	201.10425	193.88402	87.03137	
236	2.350	199.14890	194.36905	226.37503	201.07387	193.98856	87.41446	
237	2.360	199.14822	194.46326	226.81219	201.17337	193.96315	87.71373	
238	2.370	199.05717	194.41025	227.24489	201.07870	193.92546	88.20887	
239	2.380	198.88362	194.40448	227.60460	201.12012	193.95096	88.45200	
240	2.390	199.23441	194.45905	227.98650	200.92668	194.01608	88.95693	
241	2.400	199.08170	194.43810	228.41644	200.93022	193.92670	89.33774	
242	2.410	199.08038	194.35295	228.83382	201.18117	193.90466	89.88556	
243	2.420	199.04698	194.37569	229.37758	201.11276	193.93474	90.40199	
244	2.430	199.12286	194.51158	229.73372	206.09540	194.41393	87.94550	
245	2.440	199.09094	194.51183	230.23061	200.90968	193.92839	91.21532	
246	2.450	198.94354	194.45352	230.72438	200.93431	193.90172	91.65000	
247	2.460	198.92371	194.48792	231.01772	201.10909	193.97789	92.08649	
248	2.470	199.12088	194.43434	231.53899	201.10217	194.12923	92.44688	
249	2.480	199.07266	194.53302	231.98039	205.89035	194.26903	90.37515	
250	2.490	198.91530	194.50504	232.48611	200.86261	193.80646	93.46362	
251	2.500	198.86740	194.48230	232.83769	200.88583	193.90665	93.77200	
252	2.510	198.76605	194.45255	233.12703	200.88844	193.94037	93.99104	
253	2.520	198.96519	194.59473	233.55679	200.86803	193.99504	94.67603	
254	2.530	199.02214	194.56181	234.10280	205.37561	194.22612	92.58681	
255	2.540	198.95772	194.54527	234.55444	200.76544	193.80458	95.53817	
256	2.550	198.83774	194.46613	234.83266	200.82307	193.77713	95.80681	
257	2.560	198.90173	194.53732	235.18787	200.62823	193.72865	96.19246	
258	2.570	198.78398	194.53333	235.66051	200.73314	193.76691	96.50181	
259	2.580	198.90340	194.53729	236.20514	200.83247	193.91356	97.12320	
260	2.590	199.03954	194.57816	236.57480	200.60133	193.72273	97.69862	
261	2.600	199.10951	194.61081	237.01346	200.84039	193.70178	98.06351	
262	2.610	199.07933	194.56886	237.38547	200.87251	193.92229	98.38783	
263	2.620	198.89330	194.59064	237.79031	200.91048	193.91638	98.74935	
264	2.630	199.08789	194.70833	238.40123	205.15158	194.25198	97.08673	
265	2.640	199.21278	194.66460	238.92058	200.64514	193.97141	99.93176	
266	2.650	199.19064	194.60052	239.24287	200.83742	194.10667	100.31907	
267	2.660	199.14484	194.70648	239.65672	200.96783	194.12567	100.67860	
268	2.670	199.01039	194.65781	240.20912	204.98592	194.38948	98.77974	
269	2.680	199.01654	194.76175	240.67566	200.45120	194.03520	101.58387	
270	2.690	199.07408	194.69728	241.00862	200.68671	194.12280	102.11595	
271	2.700	199.14233	194.72559	241.40877	200.58876	194.08937	102.55096	
272	2.710	199.06660	194.70206	241.87163	200.39273	194.10391	102.89472	
273	2.720	198.80612	194.73270	242.29851	200.53601	194.00278	103.21294	
274	2.730	198.82280	194.77077	242.57338	200.30544	193.99567	103.75510	
275	2.740	199.00755	194.76045	243.08269	200.30550	194.00296	104.13764	
276	2.750	198.95921	194.70149	243.57869	200.29494	194.07744	104.64088	
277	2.760	198.94171	194.73921	243.88019	200.23369	194.12840	105.03400	
278	2.770	198.95526	194.77725	244.33746	200.30533	194.13905	105.38804	
279	2.780	198.93826	194.74402	244.79561	200.30273	194.04512	105.85618	
280	2.790	198.85103	194.83305	245.20793	200.22768	193.88010	106.32001	
281	2.800	198.94275	194.74460	245.61366	200.32860	194.07538	106.67862	
282	2.810	199.06453	194.74986	246.08685	200.49025	194.26704	107.22199	
283	2.820	199.03119	194.75568	246.57138	200.39973	194.17719	107.61864	
284	2.830	199.07590	194.83243	246.86639	200.25931	193.98119	108.08436	
285	2.840	199.00374	194.87004	247.44591	200.53017	194.04417	108.40733	
286	2.850	199.11935	194.76353	247.93074	200.74774	194.18019	108.84607	
287	2.860	199.20229	194.81354	248.18239	200.49478	194.14262	109.47658	
288	2.870	199.15196	194.80022	248.57501	204.18640	194.39221	107.77783	
289	2.880	199.18729	194.88875	249.12497	200.35172	194.23250	110.12267	
290	2.890	198.98444	194.80051	249.59612	200.41072	194.12924	110.37998	
291	2.900	199.00372	194.81445	249.92845	200.49940	194.14032	111.03447	
292	2.910	199.07385	194.83261	250.13336	200.36290	194.04411	111.27506	
293	2.920	199.14909	194.89732	250.71208	200.19360	194.14781	111.82539	
294	2.930	198.79967	194.77820	251.14310	200.29755	194.16029	112.19272	
295	2.940	198.88708	194.68271	251.48274	200.13176	194.10341	112.80678	
296	2.950	198.86595	194.73746	251.86406	200.17570	194.23151	112.94156	
297	2.960	198.91292	194.62822	252.51559	200.26753	194.18442	113.25747	
298	2.970	198.74232	194.72270	252.85732	199.98650	194.04669	113.92413	
299	2.980	198.75417	194.72594	253.17784	200.14915	194.16623	114.50054	
300	2.990	198.79947	194.69315	253.77054	200.15466	194.27322	114.84413	
301	3.000	198.75481	194.68675	254.19194	200.19992	194.30981	115.00974	
302	3.010	198.78711	194.80402	254.47954	200.22778	194.20413	115.56474	
303	3.020	198.62912	194.67807	255.10863	200.00638	194.28314	116.15288	
